<?xml version="1.0" encoding="UTF-8"?>
<svg fill="none" viewBox="0 0 21 21" xmlns="http://www.w3.org/2000/svg">
  <path d="m14.934 8.5107c0-0.07142-0.0357-0.15178-0.0893-0.20535l-0.4464-0.44643c-0.0536-0.05357-0.134-0.08929-0.2054-0.08929s-0.1518 0.03572-0.2053 0.08929l-3.509 3.509-3.5089-3.509c-0.05357-0.05357-0.13393-0.08929-0.20536-0.08929-0.08035 0-0.15178 0.03572-0.20535 0.08929l-0.44643 0.44643c-0.05357 0.05357-0.08929 0.13393-0.08929 0.20535 0 0.07143 0.03572 0.15179 0.08929 0.20536l4.1607 4.1607c0.0535 0.0536 0.1339 0.0893 0.2053 0.0893 0.0715 0 0.1518-0.0357 0.2054-0.0893l4.1607-4.1607c0.0536-0.05357 0.0893-0.13393 0.0893-0.20536z" fill="#000"/>
</svg>
