<?xml version="1.0" encoding="UTF-8"?>
<svg fill="none" viewBox="0 0 55 56" xmlns="http://www.w3.org/2000/svg">
  <path d="m44.429 39.607c0 0.3416-0.3014 0.6429-0.6429 0.6429h-29.571c-0.3415 0-0.6429-0.3013-0.6429-0.6429v-15.428c0.4219 0.4821 0.884 0.9241 1.3862 1.3259 2.8728 2.2098 5.7656 4.4598 8.558 6.7901 1.5067 1.2657 3.375 2.8125 5.4643 2.8125h0.0402c2.0893 0 3.9576-1.5468 5.4643-2.8125 2.7924-2.3303 5.6852-4.5803 8.558-6.7901 0.5022-0.4018 0.9643-0.8438 1.3862-1.3259v15.428zm0-21.114c0 1.7076-1.6473 3.9375-2.9532 4.962-2.6919 2.1094-5.3839 4.2389-8.0558 6.3684-1.0647 0.8638-2.9933 2.712-4.3995 2.712h-0.0402c-1.4062 0-3.3348-1.8482-4.3995-2.712-2.6719-2.1295-5.3639-4.259-8.0558-6.3684-1.8081-1.4263-2.9532-3.4151-2.9532-5.7053 0-0.3415 0.3014-0.6429 0.6429-0.6429h29.571c0.7634 0 0.6429 0.884 0.6429 1.3862zm2.5714-0.7433c0-1.7679-1.4464-3.2143-3.2143-3.2143h-29.571c-1.7679 0-3.2143 1.4464-3.2143 3.2143v21.857c0 1.7679 1.4464 3.2143 3.2143 3.2143h29.571c1.7679 0 3.2143-1.4464 3.2143-3.2143v-21.857z" fill="#fff"/>
</svg>
