<?xml version="1.0" encoding="UTF-8"?>
<svg fill="none" viewBox="0 0 55 56" xmlns="http://www.w3.org/2000/svg">
  <path d="m23.929 32.536v-1.9286h2.5714v-5.7857h-0.0402c-0.3214 0.5023-0.6227 0.7232-1.1049 1.1451l-1.5469-1.6071 2.9732-2.7523h2.2902v9h2.5715v1.9286h-7.7143zm10.286-5.1429c0-3.6562-2.2098-8.3571-6.4286-8.3571-4.2187 0-6.4286 4.7009-6.4286 8.3571 0 3.6563 2.2099 8.3572 6.4286 8.3572 4.2188 0 6.4286-4.7009 6.4286-8.3572zm10.286 5.1429c-2.8326 0-5.1429 2.3103-5.1429 5.1429h-23.143c0-2.8326-2.3103-5.1429-5.1429-5.1429v-10.286c2.8326 0 5.1429-2.3103 5.1429-5.1429h23.143c0 2.8326 2.3103 5.1429 5.1429 5.1429v10.286zm2.5714-16.714c0-0.7031-0.5826-1.2857-1.2857-1.2857h-36c-0.70312 0-1.2857 0.5826-1.2857 1.2857v23.143c0 0.7031 0.58259 1.2857 1.2857 1.2857h36c0.7031 0 1.2857-0.5826 1.2857-1.2857v-23.143z" fill="#fff"/>
</svg>
