<?xml version="1.0" encoding="UTF-8"?>
<svg fill="none" viewBox="0 0 55 56" xmlns="http://www.w3.org/2000/svg">
  <path d="m37.786 35.964c0 1.4062-1.1652 2.5714-2.5714 2.5714-1.4063 0-2.5715-1.1652-2.5715-2.5714 0-1.4063 1.1652-2.5715 2.5715-2.5715 1.4062 0 2.5714 1.1652 2.5714 2.5715zm-15.429-15.429c0 1.4062-1.1652 2.5714-2.5714 2.5714-1.4063 0-2.5714-1.1652-2.5714-2.5714 0-1.4063 1.1651-2.5714 2.5714-2.5714 1.4062 0 2.5714 1.1651 2.5714 2.5714zm20.572 15.429c0-4.259-3.4554-7.7143-7.7143-7.7143-4.259 0-7.7143 3.4553-7.7143 7.7143 0 4.2589 3.4553 7.7143 7.7143 7.7143 4.2589 0 7.7143-3.4554 7.7143-7.7143zm-1.9286-21.857c0-0.7031-0.5826-1.2857-1.2857-1.2857h-3.2143c-0.4018 0-0.7835 0.2009-1.0246 0.5223l-21.214 28.286c-0.1607 0.221-0.2611 0.4822-0.2611 0.7634 0 0.7032 0.5826 1.2858 1.2857 1.2858h3.2143c0.4018 0 0.7835-0.2009 1.0245-0.5224l21.214-28.286c0.1607-0.221 0.2612-0.4821 0.2612-0.7634zm-13.5 6.4286c0-4.2589-3.4554-7.7143-7.7143-7.7143s-7.7143 3.4554-7.7143 7.7143 3.4554 7.7143 7.7143 7.7143 7.7143-3.4554 7.7143-7.7143z" fill="#fff"/>
</svg>
