<?xml version="1.0" encoding="UTF-8"?>
<svg fill="none" viewBox="0 0 20 20" xmlns="http://www.w3.org/2000/svg">
  <g clip-path="url(#b)">
    <g clip-path="url(#a)">
      <path d="m16.412 13.451c0.0601 0.3875-0.0668 0.5516-0.1951 0.5516-0.1282 0-0.3139-0.1576-0.521-0.4702-0.207-0.3126-0.2778-0.6601-0.1776-0.8384 0.0377-0.0617 0.0986-0.107 0.17-0.1265s0.1478-0.0116 0.2134 0.0219c0.3406 0.124 0.4742 0.6291 0.5103 0.8616zm-1.8877 0.85c0.4102 0.3345 0.5344 0.7324 0.318 1.0127-0.0659 0.0784-0.15 0.1407-0.2453 0.182-0.0954 0.0413-0.1994 0.0603-0.3038 0.0557-0.2288 3e-4 -0.4505-0.0769-0.6265-0.2183-0.3714-0.3139-0.481-0.8242-0.2378-1.1135 0.0537-0.0594 0.1207-0.1061 0.196-0.1366 0.0752-0.0304 0.1567-0.0438 0.2382-0.0391 0.2448 0.0079 0.4789 0.0989 0.6612 0.2571zm-0.684 3.2293c1.7621 0 3.6738 0.5839 5.7912 2.3975 0.2111 0.1808 0.493-0.044 0.3086-0.27-2.08-2.5383-4.0077-3.0227-5.9221-3.4309-2.3458-0.5012-3.5535-1.7787-4.3992-3.1802-0.16699-0.279-0.24314-0.2299-0.25783 0.1292-0.01404 0.5323 0.02758 1.0646 0.12424 1.5888h-0.28589c-1.2022 0-2.3774-0.3447-3.377-0.9905s-1.7787-1.5638-2.2387-2.6377c-0.46006-1.074-0.58044-2.2557-0.3459-3.3958 0.23454-1.1401 0.81345-2.1874 1.6635-3.0093 0.85009-0.82197 1.9332-1.3817 3.1122-1.6085 1.1791-0.22678 2.4013-0.11038 3.512 0.33446 1.1107 0.44485 2.06 1.1982 2.7279 2.1647s1.0244 2.1029 1.0244 3.2653c6e-4 0.2283-0.0123 0.45645-0.0388 0.68333-0.6403-0.07797-1.2874-0.08966-1.9303-0.03488-0.2312 0.01938-0.1978 0.12917-0.0241 0.15372 2.0039 0.35003 3.3906 1.55 3.7058 3.7395 0.0012 0.0111 0.0059 0.0216 0.0135 0.0299 0.0077 0.0084 0.0178 0.0142 0.0291 0.0166 0.0112 0.0025 0.023 0.0014 0.0336-3e-3s0.0195-0.0119 0.0254-0.0215c1.0424-1.6849 1.4788-3.656 1.2411-5.6059s-1.1361-3.7689-2.5551-5.1733c-1.419-1.4044-3.2788-2.3152-5.2893-2.5903-2.0105-0.27516-4.0587 0.1008-5.825 1.0692-1.7663 0.96844-3.1515 2.4749-3.9395 4.2844-0.788 1.8095-0.9345 3.8203-0.41664 5.7188 0.51786 1.8984 1.671 3.5778 3.2794 4.7761s3.5819 1.8482 5.6124 1.8483c1.3426 0.0039 2.6798-0.2493 4.6409-0.2493v0.0013z" fill="#3e9cdc"/>
    </g>
  </g>
  <defs>
    <clipPath id="b">
      <rect width="20" height="20" fill="#fff"/>
    </clipPath>
    <clipPath id="a">
      <rect width="20" height="20" fill="#fff"/>
    </clipPath>
  </defs>
</svg>
