<?xml version="1.0" encoding="UTF-8"?>
<svg fill="none" viewBox="0 0 55 55" xmlns="http://www.w3.org/2000/svg">
  <path d="m33.929 24.929c0 4.962-4.038 9-9 9-4.9621 0-9-4.038-9-9 0-4.9621 4.0379-9 9-9 4.962 0 9 4.0379 9 9zm10.286 16.714c0-0.6831-0.2813-1.346-0.7433-1.8081l-6.8907-6.8906c1.6273-2.3505 2.4911-5.163 2.4911-8.0156 0-7.8148-6.3281-14.143-14.143-14.143-7.8148 0-14.143 6.3281-14.143 14.143 0 7.8147 6.3281 14.143 14.143 14.143 2.8526 0 5.6651-0.8638 8.0156-2.4911l6.8906 6.8706c0.4621 0.4821 1.125 0.7634 1.8081 0.7634 1.4062 0 2.5714-1.1652 2.5714-2.5714z" fill="#fff"/>
</svg>
