<?xml version="1.0" encoding="UTF-8"?>
<svg fill="none" viewBox="0 0 20 20" xmlns="http://www.w3.org/2000/svg">
  <path d="m14.846 12.286c0 0.6503-0.123 1.2216-0.3691 1.7138s-0.5772 0.8994-0.9932 1.2217c-0.4922 0.3867-1.0342 0.6621-1.626 0.8262-0.5859 0.164-1.333 0.2461-2.2412 0.2461h-5.2383v-13.087h4.623c0.96093 0 1.6875 0.03809 2.1797 0.11426 0.498 0.07031 0.9638 0.22266 1.3974 0.45703 0.4688 0.25196 0.8174 0.58887 1.0459 1.0107 0.2344 0.42188 0.3516 0.90821 0.3516 1.459 0 0.63867-0.1611 1.207-0.4834 1.7051-0.3164 0.49804-0.7559 0.86425-1.3184 1.0986v0.07031c0.8086 0.16992 1.4561 0.51856 1.9424 1.0459 0.4863 0.5215 0.7295 1.2275 0.7295 2.1182zm-4.21-5.379c0-0.21094-0.0556-0.42774-0.1669-0.65039-0.1055-0.22266-0.2725-0.38379-0.50103-0.4834-0.21679-0.09375-0.47461-0.14356-0.77343-0.14941-0.29297-0.01172-0.73243-0.01758-1.3184-0.01758h-0.22852v2.7686h0.41309c0.5625 0 0.95507-0.00586 1.1777-0.01758 0.22852-0.01171 0.46289-0.07324 0.70313-0.18457 0.26369-0.12304 0.44529-0.29297 0.54489-0.50976 0.0996-0.2168 0.1494-0.46875 0.1494-0.75586zm0.8262 5.3174c0-0.4043-0.082-0.7207-0.2461-0.9492-0.164-0.2285-0.4101-0.4014-0.7383-0.5185-0.1992-0.0762-0.4746-0.1172-0.82613-0.1231-0.34571-0.0117-0.81153-0.0176-1.3975-0.0176h-0.60645v3.2784h0.17578c0.85547 0 1.4473-0.0059 1.7754-0.0176 0.32813-0.0117 0.66207-0.0908 1.002-0.2373 0.2988-0.1289 0.5156-0.3164 0.6504-0.5625 0.1406-0.252 0.2109-0.5362 0.2109-0.8526z" fill="#3e9cdc"/>
</svg>
