<?xml version="1.0" encoding="UTF-8"?>
<svg fill="none" viewBox="0 0 20 20" xmlns="http://www.w3.org/2000/svg">
  <g clip-path="url(#a)">
    <path d="m8.8407 0c1.4103 0 2.7521 0.3231 3.9561 0.90108 0.1889 0.085192 0.3789 0.18715 0.5671 0.2892l-0.8256 0.73131-1.2376-1.2753-2.1327 1.8702-1.2559-1.3434-3.9217 3.4858 2.5108 2.7376-0.98018 0.84995 2.4771 2.7376-0.98027 0.8496 3.5434 3.8938 2.0972-1.9044 1.824 2.0409c-0.3615 0.2721-0.7571 0.5447-1.1866 0.7823-1.3074 0.7311-2.8212 1.1554-4.4378 1.1554-4.9712 0-9.0126-3.995-9.0126-8.9085-0.017555-4.8803 4.0245-8.8931 8.9952-8.8931zm-1.6515 8.3486 2.1501-1.9045 1.9268 2.1253-2.1505 1.9043-1.9264-2.1252zm1.5312 3.6728 2.1326-1.9213 1.9437 2.1252-2.1501 1.9045-1.9262-2.1084zm-3.0611-7.2943 2.1494-1.9045 1.9264 2.1253-2.1502 1.9044-1.9256-2.1252zm3.938-1.0205 1.5997-1.4282 1.4452 1.5814-1.5998 1.4451-1.4451-1.5982zm2.8555 6.5462 1.5992-1.4282 1.445 1.5978-1.5998 1.4292-1.4444-1.5988zm1.4102 3.214 1.5998-1.4286 1.4439 1.5813-1.5992 1.4449-1.4445-1.5976zm0.6537-7.3457 1.0662-0.95228 0.9629 1.0546-1.0661 0.95192-0.963-1.0542zm-1.376-3.1456 1.0663-0.96897 0.9636 1.071-1.0671 0.95219-0.9628-1.0542zm2.7346 6.2914 1.0663-0.95219 0.9803 1.0542-1.0832 0.95192-0.9634-1.054zm-4.7986-2.3635 1.5998-1.4283 1.4444 1.581-1.5991 1.4286-1.4451-1.5813z" fill="#3e9cdc"/>
  </g>
  <defs>
    <clipPath id="a">
      <rect width="20" height="20" fill="#fff"/>
    </clipPath>
  </defs>
</svg>
