<svg width="20" height="20" viewBox="0 0 20 20" fill="none" xmlns="http://www.w3.org/2000/svg">
  <path fill-rule="evenodd" clip-rule="evenodd" d="M3.27987 9.9307C3.27987 8.94664 3.36306 8.32213 5.41814 6.80087C7.11952 5.54138 12.5731 1.23743 12.5731 1.23743V8.42209H16.7203V18.7627H4.57521C3.86279 18.7627 3.27966 18.1844 3.27966 17.4778L3.27987 9.93076V9.9307Z" fill="#3e9cdc"/>
  <path fill-rule="evenodd" clip-rule="evenodd" d="M12.573 8.422V12.585L4.95215 17.7335L14.5874 14.6246V8.422H12.573Z" fill="black" fill-opacity="0.2"/>
  <path fill-rule="evenodd" clip-rule="evenodd" d="M9.09049 8.20685C9.53618 7.68023 10.1871 7.49436 10.5444 7.79173C10.9018 8.08915 10.8304 8.75719 10.3847 9.2838C9.93934 9.81035 9.2882 9.99602 8.93081 9.69859C8.57343 9.40123 8.64507 8.73333 9.09049 8.20678V8.20685Z" fill="#231f20"/>
</svg>
