<?xml version="1.0" encoding="UTF-8"?>
<svg fill="none" viewBox="0 0 18 21" xmlns="http://www.w3.org/2000/svg">
  <path d="m16.812 4.609-3.4821-3.4821c-0.413-0.41295-1.2389-0.75893-1.8304-0.75893h-10c-0.59152 0-1.0714 0.47991-1.0714 1.0714v17.857c0 0.5915 0.47991 1.0714 1.0714 1.0714h15c0.5915 0 1.0714-0.4799 1.0714-1.0714v-12.857c0-0.59152-0.346-1.4174-0.7589-1.8304zm-4.9554-2.7232c0.1898 0.06696 0.3795 0.16741 0.4576 0.24553l3.4933 3.4933c0.0782 0.07812 0.1786 0.26785 0.2456 0.45759h-4.1965v-4.1964zm4.2858 17.054h-14.286v-17.143h8.5715v4.6429c0 0.59152 0.4799 1.0714 1.0714 1.0714h4.6429v11.429zm-11.429-9.6429v0.71431c0 0.2009 0.15625 0.3571 0.35714 0.3571h7.8572c0.2009 0 0.3571-0.1562 0.3571-0.3571v-0.71431c0-0.20089-0.1562-0.35714-0.3571-0.35714h-7.8572c-0.20089 0-0.35714 0.15625-0.35714 0.35714zm8.2143 2.5h-7.8572c-0.20089 0-0.35714 0.1562-0.35714 0.3571v0.7143c0 0.2009 0.15625 0.3572 0.35714 0.3572h7.8572c0.2009 0 0.3571-0.1563 0.3571-0.3572v-0.7143c0-0.2009-0.1562-0.3571-0.3571-0.3571zm0 2.8571h-7.8572c-0.20089 0-0.35714 0.1563-0.35714 0.3572v0.7143c0 0.2009 0.15625 0.3571 0.35714 0.3571h7.8572c0.2009 0 0.3571-0.1562 0.3571-0.3571v-0.7143c0-0.2009-0.1562-0.3572-0.3571-0.3572z" fill="#272733"/>
</svg>
