<?xml version="1.0" encoding="UTF-8"?>
<svg viewBox="0 0 55 56" xmlns="http://www.w3.org/2000/svg">
  <path d="m23.993 29.872v-1.2857c0-0.3616 0.2813-0.6428 0.6429-0.6428h14.143c0.3616 0 0.6428 0.2812 0.6428 0.6428v1.2857c0 0.3616-0.2812 0.6429-0.6428 0.6429h-14.143c-0.3616 0-0.6429-0.2813-0.6429-0.6429z" fill="#fff"/>
  <path d="m24.636 33.087h14.143c0.3616 0 0.6428 0.2813 0.6428 0.6429v1.2857c0 0.3616-0.2812 0.6428-0.6428 0.6428h-14.143c-0.3616 0-0.6429-0.2812-0.6429-0.6428v-1.2857c0-0.3616 0.2813-0.6429 0.6429-0.6429z" fill="#fff"/>
  <path d="m24.636 38.23h14.143c0.3616 0 0.6428 0.2812 0.6428 0.6428v1.2857c0 0.3617-0.2812 0.6429-0.6428 0.6429h-14.143c-0.3616 0-0.6429-0.2812-0.6429-0.6429v-1.2857c0-0.3616 0.2813-0.6428 0.6429-0.6428z" fill="#fff"/>
  <path d="m16.279 21.815c-4.0952 0-7.415-3.3198-7.415-7.415s3.3198-7.415 7.415-7.415c3.444 0 6.3396 2.348 7.1734 5.5305h12.755c1.0648 0 2.5514 0.6228 3.2947 1.3661l6.2678 6.2678c0.7433 0.7433 1.3661 2.2299 1.3661 3.2947v23.143c0 1.0648-0.8638 1.9286-1.9286 1.9286h-27c-1.0647 0-1.9285-0.8638-1.9285-1.9286v-24.772zm2.5714-0.458c2.6225-0.9697 4.5467-3.3798 4.8122-6.2701h10.616v8.3572c0 1.0647 0.8638 1.9285 1.9285 1.9285h8.3572v20.572h-25.714v-24.587zm18.824-5.6674c-0.1406-0.1406-0.4821-0.3214-0.8236-0.442v7.5536h7.5536c-0.1206-0.3415-0.3014-0.683-0.442-0.8237l-6.288-6.2879zm-20.395-0.2896h4v-2h-4v-4h-2v4h-4v2h4v4h2v-4z" clip-rule="evenodd" fill="#fff" fill-rule="evenodd"/>
</svg>
